<svg width="281" height="121" viewBox="0 0 281 121" fill="none" xmlns="http://www.w3.org/2000/svg">
  <defs>
    <radialGradient id="uranusGlow" cx="0" cy="0" r="1" gradientUnits="userSpaceOnUse" gradientTransform="translate(137 59) rotate(90) scale(88 134)">
      <stop stop-color="#8be9fd" stop-opacity="0.46"/>
      <stop offset="0.48" stop-color="#3a7bd5" stop-opacity="0.2"/>
      <stop offset="1" stop-color="#050608" stop-opacity="0"/>
    </radialGradient>
    <linearGradient id="uranusLine" x1="31" y1="32" x2="256" y2="88" gradientUnits="userSpaceOnUse">
      <stop stop-color="#8be9fd" stop-opacity="0.12"/>
      <stop offset="0.48" stop-color="#8be9fd"/>
      <stop offset="1" stop-color="#f1d37a" stop-opacity="0.7"/>
    </linearGradient>
    <filter id="uranusBlur" x="-30" y="-30" width="341" height="181" color-interpolation-filters="sRGB">
      <feGaussianBlur stdDeviation="13"/>
    </filter>
  </defs>
  <rect width="281" height="121" rx="18" fill="#050608"/>
  <rect width="281" height="121" rx="18" fill="url(#uranusGlow)"/>
  <g filter="url(#uranusBlur)">
    <ellipse cx="136" cy="60" rx="58" ry="25" fill="#8be9fd" fill-opacity="0.2"/>
  </g>
  <path d="M28 34C66 51 101 57 134 53C173 49 208 62 253 91" stroke="url(#uranusLine)" stroke-width="1.3"/>
  <path d="M30 87C68 70 103 64 136 68C175 72 210 59 254 30" stroke="#8be9fd" stroke-opacity="0.25" stroke-width="1"/>
  <ellipse cx="139" cy="60" rx="58" ry="18" stroke="#8be9fd" stroke-opacity="0.36"/>
  <ellipse cx="139" cy="60" rx="34" ry="45" stroke="#f1d37a" stroke-opacity="0.16"/>
  <circle cx="139" cy="60" r="23" stroke="#ffffff" stroke-opacity="0.12"/>
  <path d="M139 23V98" stroke="#8be9fd" stroke-opacity="0.62" stroke-width="3" stroke-linecap="round"/>
  <path d="M114 37V83" stroke="#f1d37a" stroke-opacity="0.58" stroke-width="3" stroke-linecap="round"/>
  <path d="M164 37V83" stroke="#f1d37a" stroke-opacity="0.58" stroke-width="3" stroke-linecap="round"/>
  <circle cx="139" cy="60" r="10" fill="#8be9fd"/>
  <circle cx="139" cy="60" r="4" fill="#050608"/>
  <path d="M88 18L97 29L84 35" stroke="#8be9fd" stroke-opacity="0.56" stroke-width="2" stroke-linecap="round" stroke-linejoin="round"/>
  <path d="M197 103L187 92L200 86" stroke="#f1d37a" stroke-opacity="0.62" stroke-width="2" stroke-linecap="round" stroke-linejoin="round"/>
  <circle cx="57" cy="74" r="1.8" fill="#8be9fd"/>
  <circle cx="213" cy="42" r="2" fill="#f1d37a"/>
  <circle cx="234" cy="74" r="1.3" fill="#ffffff" fill-opacity="0.55"/>
</svg>
